<svg width="57" height="36" viewBox="0 0 57 36" fill="none" xmlns="http://www.w3.org/2000/svg">
<path fill-rule="evenodd" clip-rule="evenodd" d="M26.084 13.513V2.0087V0H23.958H19.3193C18.0384 0 17 0.98108 17 2.1913V13.513C17 17.648 20.5479 21 24.9244 21H25.1176C26.3276 21 27.4742 20.7438 28.5 20.2857C29.5258 20.7438 30.6724 21 31.8824 21H32.0756C36.4521 21 40 17.648 40 13.513V2.1913C40 0.98108 38.9616 0 37.6807 0H33.042H30.916V2.0087V13.513C30.916 15.346 29.9632 16.9687 28.5 17.9632C27.0368 16.9687 26.084 15.346 26.084 13.513ZM33.042 13.513V2.0087H37.6807C37.7874 2.0087 37.8739 2.09045 37.8739 2.1913V13.513C37.8739 16.5386 35.278 18.9913 32.0756 18.9913H31.8824C31.4614 18.9913 31.0509 18.9489 30.6554 18.8684C32.1279 17.509 33.042 15.6119 33.042 13.513ZM23.958 13.513C23.958 15.6119 24.8721 17.509 26.3446 18.8684C25.9491 18.9489 25.5386 18.9913 25.1176 18.9913H24.9244C21.722 18.9913 19.1261 16.5386 19.1261 13.513V2.1913C19.1261 2.09045 19.2126 2.0087 19.3193 2.0087H23.958V13.513Z" fill="white"/>
<path d="M2.40176 31.2208C2.40176 32.1979 2.67843 32.9514 3.23178 33.4812C3.7969 34.011 4.52096 34.2759 5.40396 34.2759C6.38115 34.2759 7.13464 34.011 7.66444 33.4812C8.20601 32.9397 8.4768 32.1685 8.4768 31.1678V25.9934C8.4768 25.8639 8.51801 25.7579 8.60042 25.6755C8.69461 25.5931 8.80057 25.5519 8.9183 25.5519C9.04781 25.5519 9.15377 25.5931 9.23618 25.6755C9.31859 25.7579 9.3598 25.8639 9.3598 25.9934V31.1678C9.3598 32.4511 9.01249 33.44 8.31786 34.1347C7.63501 34.8175 6.66371 35.1589 5.40396 35.1589C4.26195 35.1589 3.32597 34.8175 2.59602 34.1347C1.87785 33.4518 1.51876 32.4805 1.51876 31.2208V25.9934C1.51876 25.8639 1.55997 25.7579 1.64238 25.6755C1.73657 25.5931 1.84253 25.5519 1.96026 25.5519C2.08977 25.5519 2.19573 25.5931 2.27814 25.6755C2.36055 25.7579 2.40176 25.8639 2.40176 25.9934V31.2208ZM15.8094 35C14.7263 35 13.9551 34.7763 13.496 34.3289C13.0368 33.8698 12.8072 33.2575 12.8072 32.4923V28.9603H11.6946C11.5769 28.9603 11.471 28.9191 11.3768 28.8367C11.2944 28.7425 11.2531 28.6365 11.2531 28.5188C11.2531 28.3893 11.2944 28.2833 11.3768 28.2009C11.471 28.1185 11.5769 28.0773 11.6946 28.0773H12.8072V26.2936C12.8072 26.1641 12.8484 26.0582 12.9308 25.9757C13.025 25.8933 13.131 25.8521 13.2487 25.8521C13.3782 25.8521 13.4842 25.8933 13.5666 25.9757C13.649 26.0582 13.6902 26.1641 13.6902 26.2936V28.0773H16.039C16.1685 28.0773 16.2745 28.1185 16.3569 28.2009C16.4393 28.2833 16.4805 28.3893 16.4805 28.5188C16.4805 28.6365 16.4393 28.7425 16.3569 28.8367C16.2745 28.9191 16.1685 28.9603 16.039 28.9603H13.6902V32.4923C13.6902 33.5754 14.3966 34.117 15.8094 34.117C15.9389 34.117 16.0449 34.1641 16.1273 34.2583C16.2097 34.3407 16.2509 34.4408 16.2509 34.5585C16.2509 34.6762 16.2038 34.7822 16.1096 34.8764C16.0272 34.9588 15.9272 35 15.8094 35ZM24.1011 35C23.9362 35 23.8185 34.9411 23.7479 34.8234L21.1695 31.2031L19.5095 32.5099V34.5585C19.5095 34.6762 19.4683 34.7822 19.3859 34.8764C19.3034 34.9588 19.1975 35 19.068 35C18.9502 35 18.8443 34.9588 18.7501 34.8764C18.6677 34.7822 18.6265 34.6762 18.6265 34.5585V25.5342C18.6265 25.4047 18.6677 25.2988 18.7501 25.2164C18.8443 25.1339 18.9502 25.0927 19.068 25.0927C19.1975 25.0927 19.3034 25.1339 19.3859 25.2164C19.4683 25.2988 19.5095 25.4047 19.5095 25.5342V31.3797L23.6066 28.1656C23.689 28.1067 23.7714 28.0773 23.8538 28.0773C23.9833 28.0773 24.0893 28.1185 24.1717 28.2009C24.2659 28.2715 24.313 28.3716 24.313 28.5011C24.313 28.6659 24.2541 28.7896 24.1364 28.872L21.8583 30.6556L24.4543 34.2936C24.5131 34.376 24.5426 34.4643 24.5426 34.5585C24.5426 34.6762 24.4955 34.7822 24.4013 34.8764C24.3189 34.9588 24.2188 35 24.1011 35ZM31.8161 34.8411C31.5571 34.5703 31.357 34.2288 31.2157 33.8168C30.8154 34.1935 30.3739 34.4879 29.8912 34.6998C29.4203 34.8999 28.9081 35 28.3548 35C27.8132 35 27.3835 34.8999 27.0656 34.6998C26.7477 34.4996 26.524 34.2524 26.3945 33.9581C26.265 33.6637 26.2003 33.3871 26.2003 33.128C26.2003 32.8455 26.2474 32.5747 26.3415 32.3157C26.4475 32.0449 26.6064 31.8094 26.8184 31.6093C27.1127 31.3385 27.5071 31.1089 28.0016 30.9205C28.4961 30.7322 29.1024 30.638 29.8206 30.638C30.1973 30.638 30.5976 30.6556 31.0214 30.691C30.9744 30.1612 30.7978 29.7432 30.4916 29.4371C30.1855 29.1192 29.7264 28.9603 29.1142 28.9603C28.8787 28.9603 28.6373 28.9838 28.3901 29.0309C28.1429 29.0662 27.9545 29.1074 27.825 29.1545C27.6719 29.2134 27.5601 29.2428 27.4894 29.2428C27.3717 29.2428 27.2658 29.2016 27.1716 29.1192C27.0774 29.025 27.0303 28.925 27.0303 28.819C27.0303 28.5953 27.1304 28.4481 27.3305 28.3775C27.5307 28.3186 27.7956 28.2539 28.1252 28.1832C28.4666 28.1126 28.7963 28.0773 29.1142 28.0773C30.0796 28.0773 30.786 28.3422 31.2334 28.872C31.6925 29.4018 31.9221 30.0905 31.9221 30.9382V32.5453C31.9221 32.9456 31.9633 33.2811 32.0457 33.5519C32.1399 33.8109 32.2753 34.0405 32.4519 34.2406C32.5343 34.323 32.5755 34.4231 32.5755 34.5408C32.5755 34.6586 32.5284 34.7645 32.4342 34.8587C32.3518 34.9411 32.2518 34.9823 32.134 34.9823C32.0163 34.9823 31.9103 34.9352 31.8161 34.8411ZM28.3548 34.117C28.861 34.117 29.3437 34.0052 29.8029 33.7815C30.2621 33.546 30.6741 33.1928 31.0391 32.7219V31.574C30.6035 31.5386 30.1973 31.521 29.8206 31.521C28.7021 31.521 27.9133 31.7506 27.4541 32.2097C27.3128 32.351 27.2128 32.4982 27.1539 32.6512C27.1068 32.8043 27.0833 32.9632 27.0833 33.128C27.0833 33.3635 27.1833 33.5872 27.3835 33.7991C27.5954 34.011 27.9192 34.117 28.3548 34.117ZM35.2103 35C35.0926 35 34.9866 34.9588 34.8924 34.8764C34.81 34.7822 34.7688 34.6762 34.7688 34.5585V28.5188C34.7688 28.3893 34.81 28.2833 34.8924 28.2009C34.9866 28.1185 35.0926 28.0773 35.2103 28.0773C35.3398 28.0773 35.4458 28.1185 35.5282 28.2009C35.6106 28.2833 35.6518 28.3893 35.6518 28.5188V29.5607C36.111 29.078 36.5996 28.713 37.1176 28.4658C37.6356 28.2186 38.136 28.0949 38.6187 28.0949C38.7482 28.0949 38.8483 28.1361 38.9189 28.2186C39.0013 28.2892 39.0425 28.3834 39.0425 28.5011C39.0425 28.7719 38.913 28.925 38.654 28.9603C37.9712 29.0427 37.3943 29.2605 36.9233 29.6137C36.4524 29.9669 36.0286 30.4261 35.6518 30.9912V34.5585C35.6518 34.6762 35.6106 34.7822 35.5282 34.8764C35.4458 34.9588 35.3398 35 35.2103 35ZM44.9357 29.1016C44.818 29.0662 44.612 29.025 44.3176 28.9779C44.0351 28.9308 43.7231 28.9073 43.3817 28.9073C42.8048 28.9073 42.3574 29.0074 42.0395 29.2075C41.7216 29.4077 41.5627 29.6549 41.5627 29.9492C41.5627 30.2083 41.6922 30.4202 41.9512 30.585C42.222 30.7381 42.6635 30.844 43.2757 30.9029L43.9821 30.9735C44.5825 31.0324 45.0535 31.1678 45.3949 31.3797C45.7363 31.5916 45.9777 31.8447 46.119 32.1391C46.2602 32.4216 46.3309 32.7219 46.3309 33.0397C46.3309 33.3576 46.2485 33.6755 46.0836 33.9934C45.9188 34.2995 45.6304 34.5585 45.2183 34.7704C44.818 34.9706 44.2411 35.0706 43.4876 35.0706C43.052 35.0706 42.6046 35.0294 42.1455 34.947C41.6863 34.8528 41.2507 34.7174 40.8386 34.5408C40.662 34.4584 40.5737 34.3171 40.5737 34.117C40.5737 34.011 40.6208 33.9169 40.715 33.8344C40.8092 33.7403 40.9151 33.6932 41.0329 33.6932C41.0564 33.6932 41.0976 33.7049 41.1565 33.7285C41.2154 33.752 41.3213 33.7932 41.4744 33.8521C41.6981 33.9345 41.9924 34.011 42.3574 34.0817C42.7223 34.1523 43.0991 34.1876 43.4876 34.1876C44.1234 34.1876 44.6061 34.0817 44.9357 33.8698C45.2772 33.6461 45.4479 33.3694 45.4479 33.0397C45.4479 32.7336 45.3301 32.4746 45.0947 32.2627C44.8592 32.039 44.4648 31.9036 43.9115 31.8565L43.2051 31.7859C42.5104 31.7152 41.9806 31.5857 41.6157 31.3974C41.2507 31.1972 41.0034 30.9676 40.8739 30.7086C40.7444 30.4496 40.6797 30.1906 40.6797 29.9316C40.6797 29.6372 40.7562 29.3488 40.9093 29.0662C41.0741 28.7719 41.3508 28.5247 41.7393 28.3245C42.1396 28.1244 42.687 28.0243 43.3817 28.0243C43.7819 28.0243 44.1528 28.0537 44.4942 28.1126C44.8474 28.1597 45.1594 28.2244 45.4302 28.3069C45.5244 28.3186 45.6009 28.3716 45.6598 28.4658C45.7187 28.5482 45.7481 28.6365 45.7481 28.7307C45.7481 28.8602 45.701 28.9662 45.6068 29.0486C45.5244 29.131 45.4243 29.1722 45.3066 29.1722C45.236 29.1722 45.1123 29.1487 44.9357 29.1016ZM54.3343 35C54.2166 35 54.1106 34.9588 54.0164 34.8764C53.934 34.7822 53.8928 34.6762 53.8928 34.5585V31.0265C53.8928 30.2966 53.7515 29.7726 53.469 29.4548C53.1982 29.1251 52.8273 28.9603 52.3564 28.9603C51.8619 28.9603 51.391 29.0957 50.9436 29.3665C50.4962 29.6255 50.0841 29.9434 49.7074 30.3201V34.5585C49.7074 34.6762 49.6662 34.7822 49.5838 34.8764C49.5013 34.9588 49.3954 35 49.2659 35C49.1481 35 49.0422 34.9588 48.948 34.8764C48.8656 34.7822 48.8244 34.6762 48.8244 34.5585V25.5342C48.8244 25.4047 48.8656 25.2988 48.948 25.2164C49.0422 25.1339 49.1481 25.0927 49.2659 25.0927C49.3954 25.0927 49.5013 25.1339 49.5838 25.2164C49.6662 25.2988 49.7074 25.4047 49.7074 25.5342V29.1545C50.1077 28.8484 50.5256 28.5953 50.9612 28.3952C51.3969 28.1832 51.8619 28.0773 52.3564 28.0773C52.8038 28.0773 53.2099 28.1656 53.5749 28.3422C53.9399 28.5188 54.2283 28.8249 54.4403 29.2605C54.664 29.6843 54.7758 30.273 54.7758 31.0265V34.5585C54.7758 34.6762 54.7346 34.7822 54.6522 34.8764C54.5698 34.9588 54.4638 35 54.3343 35Z" fill="white"/>
</svg>
