<svg width="48" height="48" viewBox="0 0 48 48" fill="none" xmlns="http://www.w3.org/2000/svg">
<g clip-path="url(#clip0_1208_47)">
<path fill-rule="evenodd" clip-rule="evenodd" d="M24 48C37.2548 48 48 37.2548 48 24C48 10.7452 37.2548 0 24 0C10.7452 0 0 10.7452 0 24C0 37.2548 10.7452 48 24 48Z" fill="#0863FF"/>
<path fill-rule="evenodd" clip-rule="evenodd" d="M28.4478 17.3374H36.922V14.9095H28.4478V17.3374ZM30.4554 22.6348C29.9154 23.1842 29.5748 23.9285 29.4356 24.8677H36.0264C35.9568 23.8654 35.6144 23.1081 35.0085 22.5865C34.3952 22.0687 33.6407 21.8107 32.7376 21.8107C31.7592 21.8107 30.9954 22.0854 30.4554 22.6348ZM36.1751 19.3754C37.1967 19.8246 38.0377 20.5374 38.7 21.51C39.3039 22.3675 39.6915 23.3624 39.8684 24.4928C39.9719 25.1536 40.0133 26.1114 39.9963 27.3568H29.3415C29.4055 28.8028 29.9097 29.8181 30.8731 30.3991C31.4563 30.761 32.1581 30.9429 32.9822 30.9429C33.8496 30.9429 34.5589 30.722 35.1026 30.2821C35.4018 30.0427 35.6652 29.7123 35.891 29.2891H39.795C39.6915 30.1429 39.2174 31.0135 38.3783 31.897C37.0688 33.2984 35.2343 34 32.8768 34C30.9295 34 29.2117 33.4097 27.7272 32.2255C26.2352 31.0432 25.4939 29.1165 25.4939 26.451C25.4939 23.9508 26.1656 22.0334 27.5071 20.6988C28.8524 19.368 30.5927 18.6979 32.7357 18.6979C34.0095 18.6979 35.1553 18.9244 36.1751 19.3754ZM11.9417 24.9197V30.1225H16.7432C17.6012 30.1225 18.271 30.0074 18.747 29.7791C19.6143 29.3522 20.0471 28.5429 20.0471 27.3439C20.0471 26.3267 19.6294 25.6306 18.7884 25.2501C18.318 25.0385 17.6576 24.9271 16.8109 24.9197H11.9417ZM11.9417 17.3875V21.6919H16.7507C17.6068 21.6919 18.3048 21.5304 18.8429 21.2074C19.3773 20.8845 19.6463 20.3128 19.6463 19.4961C19.6463 18.5847 19.2926 17.9852 18.5852 17.6919C17.9718 17.4896 17.1929 17.3875 16.2465 17.3875H11.9417ZM22.6811 16.0789C23.2851 16.9086 23.588 17.8998 23.588 19.0561C23.588 20.2459 23.2851 21.2056 22.6736 21.9295C22.3312 22.3341 21.8288 22.7053 21.1647 23.0394C22.1731 23.4032 22.9332 23.9768 23.4507 24.762C23.9624 25.5452 24.2202 26.4993 24.2202 27.6204C24.2202 28.7768 23.9267 29.8144 23.3378 30.7313C22.9652 31.3383 22.4986 31.8506 21.938 32.2664C21.3077 32.7434 20.5645 33.0682 19.7046 33.2464C18.8448 33.4227 17.9154 33.5081 16.9107 33.5081H8V14H17.556C19.968 14.0353 21.6745 14.7276 22.6811 16.0789Z" fill="white"/>
</g>
<defs>
<clipPath id="clip0_1208_47">
<rect width="48" height="48" fill="white"/>
</clipPath>
</defs>
</svg>
