<svg width="28" height="28" viewBox="0 0 28 28" fill="none" xmlns="http://www.w3.org/2000/svg">
<g clip-path="url(#clip0_1038_197)">
<path fill-rule="evenodd" clip-rule="evenodd" d="M9.5823 22.3098C10.186 22.3098 10.7748 22.2337 11.3416 22.0835C11.9154 21.9329 12.4264 21.7009 12.8722 21.3855C13.3144 21.0728 13.6732 20.6674 13.9367 20.1673C14.1982 19.6728 14.3287 19.0857 14.3287 18.4032C14.3287 17.5614 14.1283 16.8437 13.7198 16.2436C13.3134 15.6477 12.6993 15.2288 11.8724 14.9906C12.4797 14.7027 12.9349 14.3326 13.2444 13.8811C13.5526 13.4285 13.7058 12.8626 13.7058 12.1854C13.7058 11.5594 13.6028 11.0297 13.3982 10.6067C13.188 10.1775 12.8944 9.83675 12.5196 9.58043C12.1385 9.32416 11.6886 9.13724 11.1605 9.02541C10.6297 8.90996 10.0488 8.85456 9.40522 8.85456H3.06152V22.3098H9.5823ZM10.7897 16.7547C10.4004 16.4595 9.88209 16.313 9.24471 16.313H6.02367V20.0181H9.1862C9.47768 20.0181 9.75522 19.9923 10.0162 19.9338C10.2813 19.8763 10.5158 19.7841 10.7147 19.6485C10.9125 19.518 11.0771 19.3388 11.1962 19.1121C11.3158 18.8863 11.3733 18.5933 11.3733 18.2396C11.3733 17.5463 11.1775 17.0534 10.7897 16.7547ZM9.55796 11.213C9.31362 11.1653 9.05834 11.1467 8.79578 11.1467H6.02367V14.2906H9.02208C9.54659 14.2906 9.98151 14.1663 10.3258 13.9136C10.6665 13.6646 10.8311 13.254 10.8311 12.6896C10.8311 12.3769 10.7768 12.118 10.6665 11.9172C10.5521 11.7162 10.4004 11.5594 10.2098 11.4491C10.0203 11.3346 9.80597 11.2559 9.55796 11.213Z" fill="black"/>
<path d="M22.7957 11.0851V9.75751H17.3416V11.0851H22.7957Z" fill="black"/>
<path fill-rule="evenodd" clip-rule="evenodd" d="M24.9196 18.0828C24.9698 17.3267 24.9082 16.605 24.7332 15.9138C24.5567 15.2216 24.2734 14.6044 23.8768 14.0649C23.4797 13.5243 22.9738 13.0925 22.3577 12.7735C21.7385 12.4504 21.0172 12.292 20.1929 12.292C19.4463 12.292 18.7721 12.4246 18.1607 12.6881C17.5497 12.9532 17.0252 13.3156 16.5825 13.7749C16.1409 14.2315 15.8043 14.7762 15.562 15.4074C15.3238 16.0365 15.2021 16.7169 15.2021 17.4454C15.2021 18.1987 15.3192 18.8941 15.5517 19.5221C15.7867 20.1533 16.1165 20.6907 16.5411 21.1453C16.9771 21.5984 17.4948 21.9453 18.1146 22.1933C18.7349 22.4377 19.4256 22.5619 20.1929 22.5619C21.2942 22.5619 22.2386 22.3098 23.0137 21.8039C23.7981 21.2996 24.3724 20.4624 24.7514 19.2896H22.3945C22.3033 19.591 22.0672 19.8815 21.6794 20.1533C21.288 20.4256 20.822 20.5618 20.2825 20.5618C19.5317 20.5618 18.9523 20.3651 18.5511 19.9736C18.1493 19.5822 17.8894 18.8532 17.8894 18.0828H24.9196ZM20.1126 14.3123C20.7697 14.3123 21.3077 14.5029 21.6261 14.8544C21.9456 15.2091 22.1791 15.714 22.2428 16.3964H17.8894C17.9013 16.2063 17.9427 15.9914 18.0111 15.7543C18.0799 15.511 18.1969 15.2831 18.3699 15.0678C18.5433 14.8555 18.7701 14.6758 19.0476 14.5309C19.3313 14.3843 19.685 14.3123 20.1126 14.3123Z" fill="black"/>
</g>
<rect x="0.499023" y="0.5" width="27" height="27" rx="3.5" stroke="black" stroke-opacity="0.5"/>
<defs>
<clipPath id="clip0_1038_197">
<rect x="-0.000976562" width="28" height="28" rx="4" fill="white"/>
</clipPath>
</defs>
</svg>
