<svg width="48" height="48" viewBox="0 0 48 48" fill="none" xmlns="http://www.w3.org/2000/svg">
<g clip-path="url(#clip0_1208_51)">
<path fill-rule="evenodd" clip-rule="evenodd" d="M5.33333 48H42.6667C45.6122 48 48 45.6122 48 42.6667V5.33333C48 2.38781 45.6122 0 42.6667 0H5.33333C2.38781 0 0 2.38781 0 5.33333V42.6667C0 45.6122 2.38781 48 5.33333 48Z" fill="#EC4989"/>
<path fill-rule="evenodd" clip-rule="evenodd" d="M31.6364 35.3324C31.4971 34.5083 30.769 30.4973 28.9758 25.5738C33.3881 24.8682 37.2096 26.078 37.4919 26.1701C36.8841 29.978 34.7034 33.261 31.6364 35.3324ZM24.0009 37.6652C20.6931 37.6652 17.66 36.4894 15.2949 34.5328C15.4755 34.6795 15.6016 34.7717 15.6016 34.7717C15.6016 34.7717 18.2207 29.0599 26.3247 26.236C26.3548 26.2247 26.3868 26.2172 26.4169 26.2078C28.3399 31.2028 29.132 35.3869 29.3352 36.5816C27.6964 37.2777 25.8919 37.6652 24.0009 37.6652ZM10.335 23.9991C10.335 23.8542 10.3426 23.7112 10.3463 23.5682C10.5891 23.5739 17.3402 23.7263 24.3754 21.621C24.7667 22.3867 25.1412 23.1675 25.4836 23.9445C25.303 23.9934 25.1242 24.048 24.9455 24.1082C17.5716 26.49 13.831 33.1236 13.831 33.1236C13.831 33.1236 13.8367 33.1293 13.8367 33.1312C11.6597 30.7099 10.335 27.5097 10.335 23.9991ZM18.1699 11.6442C18.3524 11.8869 20.8794 15.3128 23.2445 19.5158C16.6835 21.2598 10.9879 21.1902 10.6286 21.1846C11.5148 16.9515 14.3579 13.4428 18.1699 11.6442ZM20.727 10.7336C20.727 10.7355 20.7251 10.7374 20.7251 10.7374C20.7251 10.7374 20.7082 10.7411 20.6837 10.7449C20.6988 10.7411 20.7119 10.7393 20.727 10.7336ZM33.025 13.7475C32.9911 13.7983 31.0456 16.7615 25.8863 18.6936C23.5512 14.4023 20.9848 10.9932 20.7797 10.7223C21.8127 10.4721 22.8908 10.3366 24.0009 10.3366C27.4593 10.3366 30.6185 11.6273 33.025 13.7475ZM37.6612 23.8636C37.4636 23.8203 32.8387 22.8251 28.1442 23.4158C28.0463 23.1825 27.9504 22.9474 27.8488 22.7122C27.5646 22.0424 27.258 21.3802 26.94 20.7293C32.3363 18.5262 34.5265 15.3599 34.5528 15.3222C36.4683 17.6495 37.6292 20.622 37.6612 23.8636ZM39.6764 20.7801C39.4656 19.7528 39.1495 18.7388 38.7412 17.7718C38.3423 16.8236 37.8437 15.9092 37.2661 15.0551C36.696 14.2085 36.0374 13.4108 35.3149 12.6883C34.5905 11.964 33.7946 11.3074 32.946 10.7355C32.0917 10.156 31.1773 9.66124 30.229 9.25863C29.2618 8.85225 28.2495 8.53619 27.2222 8.32736C26.1685 8.111 25.0847 8 24.0009 8C22.9153 8 21.8315 8.111 20.7778 8.32736C19.7505 8.53619 18.7382 8.85225 17.771 9.25863C16.8227 9.66124 15.9083 10.156 15.0522 10.7355C14.2054 11.3074 13.4095 11.964 12.6851 12.6883C11.9626 13.4108 11.3059 14.2085 10.7339 15.0551C10.1563 15.9092 9.65767 16.8236 9.25878 17.7718C8.84859 18.7388 8.53437 19.7528 8.32363 20.7801C8.10913 21.8317 8 22.9154 8 23.9991C8 25.0865 8.10913 26.1701 8.32363 27.2237C8.53437 28.2509 8.84859 29.2631 9.25878 30.2282C9.65767 31.1764 10.1563 32.0945 10.7339 32.9487C11.3059 33.7953 11.9626 34.5892 12.6851 35.3154C13.4095 36.0379 14.2054 36.6926 15.0522 37.2664C15.9083 37.844 16.8227 38.3406 17.771 38.7414C18.7382 39.1515 19.7505 39.4638 20.7778 39.6726C21.8315 39.8909 22.9153 40 24.0009 40C25.0847 40 26.1685 39.8909 27.2222 39.6726C28.2495 39.4638 29.2618 39.1515 30.229 38.7414C31.1773 38.3406 32.0917 37.844 32.946 37.2664C33.7946 36.6926 34.5905 36.0379 35.3149 35.3154C36.0374 34.5892 36.696 33.7953 37.2661 32.9487C37.8437 32.0945 38.3423 31.1764 38.7412 30.2282C39.1495 29.2631 39.4656 28.2509 39.6764 27.2237C39.8909 26.1701 40 25.0865 40 23.9991C40 22.9154 39.8909 21.8317 39.6764 20.7801Z" fill="white"/>
</g>
<defs>
<clipPath id="clip0_1208_51">
<rect width="48" height="48" fill="white"/>
</clipPath>
</defs>
</svg>
