<svg width="28" height="28" viewBox="0 0 28 28" fill="none" xmlns="http://www.w3.org/2000/svg">
<g clip-path="url(#clip0_1038_199)">
<path fill-rule="evenodd" clip-rule="evenodd" d="M23.999 14C23.999 8.4875 19.5115 4 13.999 4C8.48652 4 3.99902 8.4875 3.99902 14C3.99902 19.5125 8.48652 24 13.999 24C19.5115 24 23.999 19.5125 23.999 14ZM10.3678 6.28125C7.97402 7.40625 6.19277 9.6125 5.63652 12.2625C6.01777 12.2688 9.53652 12.2812 13.5365 11.2188C12.1178 8.70625 10.5928 6.5875 10.3678 6.28125ZM11.999 5.7125C14.7053 5.05625 17.5615 5.7625 19.6615 7.625C19.5053 7.84375 18.224 9.56875 15.1865 10.7125C13.7865 8.14375 12.2365 6.03125 11.999 5.7125ZM17.3365 21.875C14.5865 23.0438 11.2865 22.725 8.75527 20.75C9.64902 18.925 12.0678 16.575 15.5115 15.4C16.7115 18.5125 17.2115 21.125 17.3365 21.875ZM14.2365 12.5375C14.4803 13.0188 14.7178 13.5 14.9303 13.9875C11.8428 14.8562 9.03652 17.3563 7.64902 19.725C6.28652 18.2063 5.45527 16.2063 5.45527 14.0125C5.45527 13.9688 5.45684 13.925 5.4584 13.8813C5.45996 13.8375 5.46152 13.7937 5.46152 13.75C5.83652 13.7625 9.97402 13.8125 14.2365 12.5375ZM18.7678 21.0938C18.6803 20.575 18.2303 18.075 17.1115 15.0063C19.7865 14.575 22.1428 15.275 22.4303 15.3687C22.049 17.7437 20.6865 19.8 18.7678 21.0938ZM16.5928 13.6562C16.3615 13.0938 16.1428 12.5938 15.8428 11.9812C18.999 10.6875 20.4303 8.85625 20.6115 8.6125C21.8053 10.0625 22.524 11.9125 22.5428 13.9312C22.2615 13.8687 19.4365 13.3 16.5928 13.6562Z" fill="black"/>
</g>
<rect x="0.499023" y="0.5" width="27" height="27" rx="3.5" stroke="black" stroke-opacity="0.5"/>
<defs>
<clipPath id="clip0_1038_199">
<rect x="-0.000976562" width="28" height="28" rx="4" fill="white"/>
</clipPath>
</defs>
</svg>
