<svg width="196" height="196" viewBox="0 0 196 196" fill="none" xmlns="http://www.w3.org/2000/svg">
<g filter="url(#filter0_d_1149_30)">
<rect x="24" y="20" width="148" height="148" rx="24" fill="white"/>
</g>
<path fill-rule="evenodd" clip-rule="evenodd" d="M53 94V123.998C53 125.103 53.8966 125.999 55.0019 125.998L68.115 125.986L82.4175 125.972C82.9385 125.972 83.4387 125.768 83.8118 125.404L90.6416 118.745L96.645 112.892C97.4268 112.13 98.6753 112.135 99.4502 112.904L105.348 118.759L112.058 125.419C112.433 125.791 112.939 126 113.467 126H128.028H141.413C142.517 126 143.413 125.105 143.413 124V94V64C143.413 62.8954 142.517 62 141.413 62H128.028H113.467C112.939 62 112.433 62.2087 112.058 62.5805L105.286 69.3026L99.338 75.2066C98.5582 75.9807 97.2999 75.9807 96.52 75.2066L90.5723 69.3026L83.7999 62.5805C83.4253 62.2087 82.9188 62 82.391 62H68.1078H55C53.8954 62 53 62.8954 53 64V94ZM89.1867 76.752L96.5196 84.0356C97.2995 84.8103 98.5585 84.8103 99.3385 84.0356L106.671 76.752L114.829 68.6499C115.204 68.2778 115.711 68.069 116.239 68.069H126.368H135.311C136.42 68.069 137.317 68.9712 137.311 70.0801L137.178 94.0458L137.045 118.022C137.039 119.127 136.138 120.017 135.033 120.011L126.218 119.96L116.218 119.902C115.695 119.899 115.193 119.691 114.821 119.322L106.799 111.364L99.6073 104.23C98.8273 103.456 97.5691 103.456 96.7895 104.23L89.6044 111.366L81.5933 119.322C81.2204 119.693 80.7166 119.901 80.1911 119.903L70.4724 119.938C64.676 119.958 59.6218 119.965 59.2401 119.953C58.6954 119.936 58.5468 114.365 58.5468 94V70.069C58.5468 68.9644 59.4422 68.069 60.5468 68.069H69.4956H79.6194C80.1475 68.069 80.6541 68.2778 81.0288 68.6499L89.1867 76.752ZM71.3044 80.4734V84.0449C71.3044 84.5754 71.5152 85.0841 71.8903 85.4592L75.8683 89.4367L79.0177 92.5857C79.7989 93.3668 79.7989 94.6332 79.0177 95.4143L75.8683 98.5633L71.8903 102.541C71.5152 102.916 71.3044 103.425 71.3044 103.955V107.527V107.527C71.3044 109.154 73.2701 109.971 74.424 108.824L80.3157 102.963L87.9015 95.418C88.6876 94.6361 88.6876 93.3639 87.9015 92.582L80.3157 85.0367L74.424 79.1763C73.2701 78.0286 71.3044 78.8459 71.3044 80.4734V80.4734ZM115.811 85.3164L108.228 92.8691C107.443 93.6515 107.444 94.9236 108.23 95.705L115.956 103.379L121.989 109.372C123.143 110.518 125.108 109.701 125.108 108.073V108.073V104.506C125.108 103.975 124.897 103.466 124.522 103.091L120.381 98.9534L117.073 95.6475C116.29 94.8651 116.292 93.5955 117.077 92.8148L120.381 89.5277L124.519 85.4118C124.896 85.0364 125.108 84.5261 125.108 83.9939V80.5854C125.108 78.2532 125.043 76.3448 124.964 76.3448C124.884 76.3448 120.765 80.3823 115.811 85.3164Z" fill="black"/>
<defs>
<filter id="filter0_d_1149_30" x="0" y="0" width="196" height="196" filterUnits="userSpaceOnUse" color-interpolation-filters="sRGB">
<feFlood flood-opacity="0" result="BackgroundImageFix"/>
<feColorMatrix in="SourceAlpha" type="matrix" values="0 0 0 0 0 0 0 0 0 0 0 0 0 0 0 0 0 0 127 0" result="hardAlpha"/>
<feOffset dy="4"/>
<feGaussianBlur stdDeviation="12"/>
<feComposite in2="hardAlpha" operator="out"/>
<feColorMatrix type="matrix" values="0 0 0 0 0 0 0 0 0 0 0 0 0 0 0 0 0 0 0.12 0"/>
<feBlend mode="normal" in2="BackgroundImageFix" result="effect1_dropShadow_1149_30"/>
<feBlend mode="normal" in="SourceGraphic" in2="effect1_dropShadow_1149_30" result="shape"/>
</filter>
</defs>
</svg>
