<svg width="28" height="28" viewBox="0 0 28 28" fill="none" xmlns="http://www.w3.org/2000/svg">
<rect x="0.5" y="0.5" width="26.9991" height="27" rx="3.5" stroke="black" stroke-opacity="0.5"/>
<path d="M6.22543 8.67273C5.90893 8.67284 5.59552 8.61052 5.30314 8.48932C5.01077 8.36812 4.74518 8.19043 4.52158 7.96643C4.29799 7.74243 4.12078 7.47652 4.00011 7.18392C3.87945 6.89133 3.81769 6.5778 3.81838 6.2613C3.8189 5.78493 3.96066 5.3194 4.22573 4.92358C4.49081 4.52776 4.8673 4.21943 5.3076 4.03757C5.74789 3.85571 6.23223 3.80848 6.69937 3.90186C7.1665 3.99525 7.59546 4.22504 7.932 4.5622C8.26855 4.89935 8.49756 5.32873 8.5901 5.79603C8.68263 6.26334 8.63453 6.74759 8.45187 7.18756C8.26921 7.62752 7.96019 8.00345 7.56389 8.26781C7.16759 8.53216 6.70181 8.67308 6.22543 8.67273Z" fill="black"/>
<path d="M8.30262 23.8614H4.14737V10.4997H8.30262V23.8614Z" fill="black"/>
<path d="M23.8518 23.8614H19.7105V17.363C19.7105 15.8134 19.6781 13.8219 17.545 13.8219C15.3855 13.8219 15.0565 15.5028 15.0565 17.2483V23.8605H10.91V10.4988H14.8929V12.3214H14.9463C15.5028 11.2688 16.8563 10.1619 18.8758 10.1619C23.0765 10.1619 23.8561 12.9277 23.8561 16.5239V23.8605L23.8518 23.8614Z" fill="black"/>
</svg>
