<svg width="69" height="44" viewBox="0 0 69 44" fill="none" xmlns="http://www.w3.org/2000/svg">
<path fill-rule="evenodd" clip-rule="evenodd" d="M32.4031 16.7287V6.74346V5H30.5577H26.5316C25.4198 5 24.5185 5.85153 24.5185 6.90196V16.7287C24.5185 20.3177 27.5979 23.2271 31.3965 23.2271H31.5643C32.6145 23.2271 33.6097 23.0047 34.5 22.6071C35.3904 23.0047 36.3856 23.2271 37.4358 23.2271H37.6035C41.4021 23.2271 44.4815 20.3177 44.4815 16.7287V6.90196C44.4815 5.85153 43.5802 5 42.4684 5H38.4423H36.597V6.74346V16.7287C36.597 18.3197 35.77 19.7281 34.5 20.5912C33.23 19.7281 32.4031 18.3197 32.4031 16.7287ZM38.4423 16.7287V6.74346H42.4684C42.5611 6.74346 42.6362 6.81442 42.6362 6.90196V16.7287C42.6362 19.3548 40.383 21.4836 37.6035 21.4836H37.4358C37.0704 21.4836 36.7141 21.4468 36.3708 21.377C37.6489 20.197 38.4423 18.5504 38.4423 16.7287ZM30.5577 16.7287C30.5577 18.5504 31.3511 20.197 32.6292 21.377C32.286 21.4468 31.9297 21.4836 31.5643 21.4836H31.3965C28.6171 21.4836 26.3638 19.3548 26.3638 16.7287V6.90196C26.3638 6.81442 26.4389 6.74346 26.5316 6.74346H30.5577V16.7287Z" fill="black"/>
<path d="M38.4423 16.7287V6.74346H42.4684C42.5611 6.74346 42.6362 6.81442 42.6362 6.90196V16.7287C42.6362 19.3548 40.383 21.4836 37.6035 21.4836H37.4358C37.0704 21.4836 36.7141 21.4468 36.3708 21.377C37.6489 20.197 38.4423 18.5504 38.4423 16.7287Z" fill="black"/>
<path d="M15.1606 27.7631H17.9704V32.2724C17.9553 33.3828 17.5739 34.3005 16.8261 35.0256C16.0858 35.7507 14.8358 36.1133 13.0758 36.1133C11.2933 36.1133 10.0734 35.7696 9.41625 35.0823C8.75911 34.3874 8.43809 33.4772 8.4532 32.3517V27.7631H11.263V32.1705C11.263 32.5028 11.2857 32.7747 11.331 32.9862C11.3839 33.1902 11.5425 33.3828 11.8069 33.564C12.0788 33.7453 12.5131 33.836 13.1098 33.836C13.7594 33.836 14.2353 33.7453 14.5374 33.564C14.8395 33.3752 15.017 33.1675 15.0699 32.9409C15.1303 32.7143 15.1606 32.4235 15.1606 32.0685V27.7631ZM24.0084 31.8419C23.3135 31.7966 22.679 31.7626 22.105 31.7399L22.0936 32.9409C22.0936 33.3488 22.1805 33.6698 22.3542 33.9039C22.5355 34.1305 22.8527 34.2438 23.3059 34.2438C23.4797 34.2438 23.6458 34.2287 23.8045 34.1985C23.7743 34.478 23.7591 34.7613 23.7591 35.0483C23.7591 35.1842 23.7667 35.4939 23.7818 35.9773C23.4495 36.0378 23.17 36.0755 22.9434 36.0906C22.7168 36.1057 22.4222 36.1133 22.0596 36.1133C21.1759 36.1133 20.549 35.9018 20.1789 35.4788C19.8163 35.0483 19.635 34.4516 19.635 33.6887L19.6464 31.7739C19.2913 31.789 18.9212 31.8117 18.536 31.8419V29.8365C18.9288 29.8365 19.2611 29.7118 19.5331 29.4626C19.805 29.2133 19.9674 28.915 20.0202 28.5675H23.102C22.7168 29.0963 22.29 29.5192 21.8217 29.8365H24.0084V31.8419ZM32.6837 29.8025L29.8739 32.3631C30.8332 33.7227 31.7282 34.935 32.5591 36H29.5567L28.9788 35.0709C28.6012 34.444 28.3519 34.0361 28.231 33.8473L27.2907 34.7084V36H24.6848C24.7452 34.5649 24.7754 33.1108 24.7754 31.6379C24.7754 30.1575 24.7452 28.6733 24.6848 27.1853H27.2907V31.9892C28.0233 31.2414 28.7145 30.5125 29.364 29.8025H32.6837ZM40.0575 34.1192C40.0575 34.376 40.0877 34.5573 40.1482 34.6631C40.2086 34.7688 40.3294 34.8443 40.5107 34.8897L40.4654 35.9547C40.2237 35.9924 40.0122 36.0189 39.8309 36.034C39.6572 36.0491 39.423 36.0567 39.1285 36.0567C38.4789 36.0567 38.0483 35.9131 37.8368 35.6261C37.6254 35.3315 37.5196 34.9576 37.5196 34.5044V34.2212C37.3006 34.8406 36.9795 35.3013 36.5566 35.6035C36.1411 35.9056 35.6086 36.0567 34.959 36.0567C34.2037 36.0567 33.6334 35.9056 33.2482 35.6035C32.8705 35.3013 32.6817 34.8519 32.6817 34.2552C32.6817 33.7642 32.8441 33.379 33.1689 33.0995C33.4937 32.82 33.996 32.6274 34.6758 32.5217C34.1017 32.1138 33.5277 31.7588 32.9536 31.4567C33.4068 30.8826 33.9242 30.4483 34.5058 30.1537C35.0874 29.8516 35.7937 29.7005 36.6245 29.7005C37.7878 29.7005 38.6488 29.9536 39.2078 30.4596C39.7743 30.9581 40.0575 31.7286 40.0575 32.7709V34.1192ZM36.8625 31.6946C36.4772 31.6946 36.1373 31.7588 35.8428 31.8872C35.5482 32.0156 35.2838 32.2082 35.0497 32.465C35.5029 32.4122 36.0694 32.3857 36.7492 32.3857C37.0286 32.3857 37.225 32.3517 37.3383 32.2838C37.4516 32.2158 37.5083 32.1289 37.5083 32.0232C37.5083 31.9325 37.4516 31.857 37.3383 31.7966C37.225 31.7286 37.0664 31.6946 36.8625 31.6946ZM35.6728 34.2099C36.0958 34.2099 36.4772 34.1305 36.8171 33.9719C37.157 33.8058 37.3912 33.5905 37.5196 33.3261V33.0315C37.3383 33.1222 37.1382 33.1939 36.9191 33.2468C36.7001 33.2921 36.4357 33.3374 36.126 33.3828L35.7181 33.4507C35.2952 33.5338 35.0837 33.6773 35.0837 33.8813C35.0837 34.1003 35.28 34.2099 35.6728 34.2099ZM43.8215 31.4907C44.1387 30.3501 44.928 29.7798 46.1894 29.7798C46.4085 29.7798 46.62 29.7949 46.8239 29.8251L46.4614 32.3631C45.9175 32.1591 45.4719 32.0572 45.1244 32.0572C44.6939 32.0572 44.3766 32.1856 44.1727 32.4424C43.9688 32.6992 43.8668 33.0429 43.8668 33.4734V33.4621L43.8555 34.2099C43.8555 34.7461 43.8706 35.3429 43.9008 36H41.1929C41.2533 34.9123 41.2836 33.8851 41.2836 32.9182C41.2836 31.9514 41.2533 30.9166 41.1929 29.8138C41.6914 29.8365 42.0729 29.8478 42.3372 29.8478C42.6167 29.8478 42.9982 29.8365 43.4816 29.8138L43.8215 31.4907ZM50.595 36.1133C49.9605 36.1133 49.3147 36.0264 48.6575 35.8527C48.0079 35.6714 47.3961 35.3995 46.8221 35.0369L48.0117 33.4168C48.3592 33.666 48.7784 33.8624 49.2693 34.0059C49.7603 34.1419 50.1833 34.2099 50.5383 34.2099C50.8782 34.2099 51.1388 34.1645 51.3201 34.0739C51.5089 33.9757 51.6033 33.8511 51.6033 33.7C51.6033 33.5792 51.558 33.4847 51.4674 33.4168C51.3767 33.3488 51.2521 33.3148 51.0935 33.3148C50.9953 33.3148 50.882 33.3186 50.7536 33.3261C50.6327 33.3337 50.5345 33.3412 50.459 33.3488C50.0662 33.3941 49.6621 33.4168 49.2467 33.4168C48.5744 33.4168 48.0268 33.2921 47.6038 33.0429C47.1884 32.7861 46.9807 32.3706 46.9807 31.7966C46.9807 31.1319 47.2941 30.6182 47.9211 30.2557C48.548 29.8856 49.4695 29.7005 50.6856 29.7005C51.2823 29.7005 51.8828 29.7874 52.4871 29.9611C53.0989 30.1273 53.6389 30.3803 54.1073 30.7202L52.8043 32.0345C52.3738 31.8079 51.9697 31.6493 51.592 31.5586C51.2219 31.4604 50.848 31.4113 50.4703 31.4113C50.206 31.4113 49.9794 31.4642 49.7905 31.57C49.6017 31.6757 49.5073 31.7966 49.5073 31.9325C49.5073 32.0383 49.545 32.1214 49.6206 32.1818C49.7037 32.2422 49.8094 32.2724 49.9378 32.2724C50.0662 32.2724 50.2437 32.2611 50.4703 32.2384C51.0217 32.2007 51.4334 32.1818 51.7053 32.1818C52.4908 32.1818 53.0989 32.314 53.5294 32.5783C53.96 32.8427 54.1752 33.2468 54.1752 33.7906C54.1752 34.6064 53.858 35.1993 53.2235 35.5695C52.589 35.932 51.7128 36.1133 50.595 36.1133ZM59.3869 36C59.4322 34.8897 59.4548 33.8662 59.4548 32.9296C59.4548 32.5972 59.3718 32.3329 59.2056 32.1365C59.047 31.9401 58.843 31.8419 58.5938 31.8419C58.3294 31.8419 58.1028 31.9703 57.914 32.2271C57.7327 32.4839 57.642 32.8352 57.642 33.2808L57.6307 33.2581C57.6307 34.4893 57.6458 35.4033 57.676 36H54.9682C55.0286 34.9123 55.0588 33.4394 55.0588 31.5813C55.0588 29.7232 55.0286 28.2503 54.9682 27.1626H57.6647L57.676 30.6522L57.6647 31.2527C57.846 30.724 58.1141 30.335 58.4691 30.0857C58.8317 29.8289 59.2396 29.7005 59.6928 29.7005C60.146 29.7005 60.5387 29.8025 60.8711 30.0064C61.2034 30.2028 61.4527 30.471 61.6189 30.8109C61.7926 31.1508 61.8795 31.5322 61.8795 31.9552V33.5867C61.8795 34.5913 61.8983 35.3957 61.9361 36H59.3869Z" fill="black"/>
</svg>
